# xmcd CD database file
#
# Track frame offsets:
#	150
#	11753
#	28894
#	40167
#	51697
#	62683
#	76352
#	89377
#	100140
#	118580
#	124256
#	138351
#	151074
#	161954
#	186584
#	195958
#	206163
#	218452
#	233070
#	244622
#	256400
#	268888
#	283566
#	296091
#
# Disc length: 4143 seconds
#
# Revision: 1
# Processed by: cddbd v1.5.1PL0 Copyright (c) Steve Scherf et al.
# Submitted via: CDex 1.51
#
DISCID=67102d18
DTITLE=Donald Lambert - Recorded 1959 - 1961
DYEAR=2003
DGENRE=Jazz
TTITLE0=Anitra's Dance
TTITLE1=Tea For Two
TTITLE2=Liza
TTITLE3=I've Got A Feeling That I'm Fallin'/Don't Let it Bother You
TTITLE4=Harlem Strut
TTITLE5=Beautiful Love/Sweet Lorraine
TTITLE6=People Will Say We're In Love
TTITLE7=Hold Your Temper
TTITLE8=Moonlight Sonata
TTITLE9=Save Your Sorrow
TTITLE10=I Know That You Know
TTITLE11=As Time Goes By
TTITLE12=Sextet From Lucia Di Lammermoor
TTITLE13=Hallelujah
TTITLE14=The Trolley Song
TTITLE15=Daintiness Rag
TTITLE16=When You Lover Has Gone
TTITLE17=Keep Off The Grass
TTITLE18=Carolina Shout
TTITLE19=I'm Just Wild About Harry
TTITLE20=You Can't Do What My Last Man Did
TTITLE21=If Dreams Come True
TTITLE22=How Can You Face Me
TTITLE23=Russian Lullaby
EXTD=YEAR: 2003
EXTT0=
EXTT1=
EXTT2=
EXTT3=
EXTT4=
EXTT5=
EXTT6=
EXTT7=
EXTT8=
EXTT9=
EXTT10=
EXTT11=
EXTT12=
EXTT13=
EXTT14=
EXTT15=
EXTT16=
EXTT17=
EXTT18=
EXTT19=
EXTT20=
EXTT21=
EXTT22=
EXTT23=
PLAYORDER=
